<?xml version="1.0" encoding="utf-8"?>
<!-- Generator: Adobe Illustrator 19.0.0, SVG Export Plug-In . SVG Version: 6.00 Build 0)  -->
<svg version="1.1" id="Layer_1" xmlns="http://www.w3.org/2000/svg" xmlns:xlink="http://www.w3.org/1999/xlink" x="0px" y="0px"
	 viewBox="0 0 350 100" enable-background="new 0 0 350 100" xml:space="preserve">
<rect id="XMLID_533_" fill="#3CC1A7" width="350" height="100"/>
<g id="XMLID_435_">
	<g id="XMLID_463_">
		<path id="XMLID_477_" fill="#231F20" d="M165.2,65.9h-12.4V39.8h12.1c5.3,0,8.6,2.6,8.6,6.7v0.1c0,2.9-1.6,4.6-3.4,5.6
			c3,1.2,4.9,2.9,4.9,6.4v0.1C175,63.5,171.1,65.9,165.2,65.9z M167.8,47.5c0-1.7-1.3-2.7-3.8-2.7h-5.7v5.5h5.3
			C166.2,50.3,167.8,49.5,167.8,47.5L167.8,47.5z M169.3,57.9c0-1.8-1.3-2.8-4.2-2.8h-6.6v5.7h6.8C167.8,60.8,169.3,60,169.3,57.9
			L169.3,57.9z"/>
		<path id="XMLID_475_" fill="#231F20" d="M180.5,65.9V39.8h5.7v26.1H180.5z"/>
		<path id="XMLID_473_" fill="#231F20" d="M205.2,45.1v20.8h-5.7V45.1h-7.9v-5.3h21.6v5.3H205.2z"/>
		<path id="XMLID_470_" fill="#231F20" d="M234.3,65.9l-5.6-8.3h-4.5v8.3h-5.7V39.8h11.9c6.1,0,9.8,3.2,9.8,8.6v0.1
			c0,4.2-2.3,6.9-5.6,8.1l6.4,9.3H234.3z M234.4,48.7c0-2.5-1.7-3.7-4.5-3.7h-5.7v7.5h5.8C232.8,52.5,234.4,51,234.4,48.7
			L234.4,48.7z"/>
		<path id="XMLID_468_" fill="#231F20" d="M246.9,65.9V39.8h5.7v26.1H246.9z"/>
		<path id="XMLID_466_" fill="#231F20" d="M269.7,66.2c-3.9,0-7.9-1.4-11.1-4.2L262,58c2.3,1.9,4.8,3.2,7.8,3.2
			c2.3,0,3.8-0.9,3.8-2.5v-0.1c0-1.5-0.9-2.2-5.3-3.3c-5.3-1.3-8.6-2.8-8.6-8v-0.1c0-4.7,3.8-7.9,9.1-7.9c3.8,0,7,1.2,9.7,3.3
			l-3,4.3c-2.3-1.6-4.6-2.6-6.8-2.6c-2.2,0-3.4,1-3.4,2.3v0.1c0,1.7,1.1,2.3,5.6,3.4c5.3,1.4,8.3,3.3,8.3,7.8v0.1
			C279.3,63.3,275.3,66.2,269.7,66.2z"/>
		<path id="XMLID_464_" fill="#231F20" d="M285.7,65.9V39.8h19.7v5.1h-14v5.3h12.3v5.1h-12.3v5.5h14.2v5.1H285.7z"/>
	</g>
	<g id="XMLID_461_">
		<rect id="XMLID_462_" x="121.2" y="27.4" fill="#231F20" width="4.1" height="51.1"/>
	</g>
	<g id="XMLID_457_">
		<path id="XMLID_458_" fill="#231F20" d="M91.5,57.9c-3.7,0-6.7-3-6.7-6.7c0-3.7,3-6.7,6.7-6.7c3.7,0,6.7,3,6.7,6.7
			C98.2,54.9,95.2,57.9,91.5,57.9z M91.5,47.7c-1.9,0-3.5,1.6-3.5,3.5c0,1.9,1.6,3.5,3.5,3.5c2,0,3.5-1.6,3.5-3.5
			C95,49.2,93.5,47.7,91.5,47.7z"/>
	</g>
	<g id="XMLID_453_">
		<path id="XMLID_454_" fill="#231F20" d="M51.2,57.9c-3.7,0-6.7-3-6.7-6.7c0-3.7,3-6.7,6.7-6.7c3.7,0,6.7,3,6.7,6.7
			C57.9,54.9,54.9,57.9,51.2,57.9z M51.2,47.7c-2,0-3.5,1.6-3.5,3.5c0,1.9,1.6,3.5,3.5,3.5c1.9,0,3.5-1.6,3.5-3.5
			C54.7,49.2,53.1,47.7,51.2,47.7z"/>
	</g>
	<g id="XMLID_448_">
		<rect id="XMLID_452_" x="51.3" y="37.1" fill="#FFFFFF" width="40.2" height="36"/>
		<path id="XMLID_449_" fill="#231F20" d="M93.1,74.8H49.7V35.6h43.4V74.8z M52.9,71.6h37V38.7h-37V71.6z"/>
	</g>
	<g id="XMLID_446_">
		<path id="XMLID_447_" fill="#231F20" d="M65.2,52.5h-2.3c0-0.8-0.7-1.5-1.5-1.5c-0.8,0-1.5,0.7-1.5,1.5h-2.3
			c0-2.1,1.7-3.8,3.8-3.8C63.5,48.7,65.2,50.4,65.2,52.5z"/>
	</g>
	<g id="XMLID_444_">
		<path id="XMLID_445_" fill="#231F20" d="M86.8,52.5h-2.3c0-0.8-0.7-1.5-1.5-1.5s-1.5,0.7-1.5,1.5h-2.3c0-2.1,1.7-3.8,3.8-3.8
			S86.8,50.4,86.8,52.5z"/>
	</g>
	<g id="XMLID_442_">
		<rect id="XMLID_443_" x="69.8" y="27.6" fill="#231F20" width="3.2" height="9.6"/>
	</g>
	<g id="XMLID_438_">
		<path id="XMLID_439_" fill="#231F20" d="M76,30.7h-9.1v-9.1H76V30.7z M70.1,27.5h2.7v-2.7h-2.7V27.5z"/>
	</g>
	<g id="XMLID_436_">
		<rect id="XMLID_437_" x="51.2" y="61.3" fill="#231F20" width="40.4" height="3.2"/>
	</g>
</g>
</svg>
